<svg width="60" height="60" viewBox="0 0 60 60" fill="none" xmlns="http://www.w3.org/2000/svg">
<circle cx="30" cy="30" r="30" fill="#C25A3A"/>
<path d="M30.4068 40.4341L30.2513 40.5896L30.0803 40.4341C22.6958 33.7337 17.8143 29.303 17.8143 24.8102C17.8143 21.7009 20.1463 19.369 23.2555 19.369C25.6496 19.369 27.9815 20.9236 28.8055 23.0379H31.6971C32.521 20.9236 34.853 19.369 37.2471 19.369C40.3563 19.369 42.6883 21.7009 42.6883 24.8102C42.6883 29.303 37.8068 33.7337 30.4068 40.4341ZM37.2471 16.2598C34.5421 16.2598 31.9458 17.519 30.2513 19.4934C28.5568 17.519 25.9605 16.2598 23.2555 16.2598C18.4673 16.2598 14.7051 20.0064 14.7051 24.8102C14.7051 30.6711 19.9908 35.4749 27.9971 42.735L30.2513 44.7871L32.5055 42.735C40.5118 35.4749 45.7975 30.6711 45.7975 24.8102C45.7975 20.0064 42.0353 16.2598 37.2471 16.2598Z" fill="#FFFBF9"/>
<path d="M28.7394 22.9403C28.1343 19.5117 23.0256 18.6547 20.9247 18.9068C19.4962 19.0748 16.487 21.3772 16.8904 26.2175C17.2937 31.0579 26.3024 37.7301 30.252 40.5872C36.3024 36.3015 47.3944 24.9572 41.8482 20.4194C37.4112 16.7891 32.017 19.9152 31.5125 22.9403H28.7394Z" fill="#FFFBF9"/>
</svg>
