<svg width="69" height="69" viewBox="0 0 69 69" fill="none" xmlns="http://www.w3.org/2000/svg">
<path d="M44.5625 40.25H42.2913L41.4863 39.4738C44.4011 36.0928 46.0032 31.7765 46 27.3125C46 23.6165 44.904 20.0034 42.8506 16.9303C40.7972 13.8571 37.8786 11.4619 34.4639 10.0475C31.0492 8.6331 27.2918 8.26302 23.6668 8.98408C20.0417 9.70515 16.7119 11.485 14.0985 14.0985C11.485 16.7119 9.70515 20.0417 8.98408 23.6668C8.26302 27.2918 8.6331 31.0492 10.0475 34.4639C11.4619 37.8786 13.8571 40.7972 16.9303 42.8506C20.0034 44.904 23.6165 46 27.3125 46C31.9413 46 36.1963 44.3038 39.4738 41.4863L40.25 42.2913V44.5625L54.625 58.9088L58.9088 54.625L44.5625 40.25ZM27.3125 40.25C20.1538 40.25 14.375 34.4713 14.375 27.3125C14.375 20.1538 20.1538 14.375 27.3125 14.375C34.4713 14.375 40.25 20.1538 40.25 27.3125C40.25 34.4713 34.4713 40.25 27.3125 40.25Z" fill="#E4C9B9"/>
</svg>
