<svg width="58" height="58" viewBox="0 0 58 58" fill="none" xmlns="http://www.w3.org/2000/svg">
<path d="M29 0C12.992 0 0 12.992 0 29C0 45.008 12.992 58 29 58C45.008 58 58 45.008 58 29C58 12.992 45.008 0 29 0ZM29 11.6C34.597 11.6 39.15 16.153 39.15 21.75C39.15 27.347 34.597 31.9 29 31.9C23.403 31.9 18.85 27.347 18.85 21.75C18.85 16.153 23.403 11.6 29 11.6ZM29 52.2C23.113 52.2 16.153 49.822 11.194 43.848C16.2737 39.8626 22.5435 37.6965 29 37.6965C35.4565 37.6965 41.7263 39.8626 46.806 43.848C41.847 49.822 34.887 52.2 29 52.2Z" fill="#E4C9B9"/>
</svg>
