<svg width="60" height="60" viewBox="0 0 60 60" fill="none" xmlns="http://www.w3.org/2000/svg">
<circle cx="30" cy="30" r="30" fill="#E4C9B9"/>
<path d="M39.3884 39.3884C40.2301 39.3884 41.0373 39.7228 41.6325 40.3179C42.2276 40.9131 42.562 41.7203 42.562 42.562C42.562 43.4037 42.2276 44.2109 41.6325 44.806C41.0373 45.4012 40.2301 45.7355 39.3884 45.7355C38.5468 45.7355 37.7395 45.4012 37.1444 44.806C36.5492 44.2109 36.2149 43.4037 36.2149 42.562C36.2149 40.8007 37.6271 39.3884 39.3884 39.3884ZM14 14H19.1888L20.6803 17.1736H44.1488C44.5696 17.1736 44.9732 17.3407 45.2708 17.6383C45.5684 17.9359 45.7355 18.3395 45.7355 18.7603C45.7355 19.0301 45.6562 19.2998 45.5451 19.5537L39.8645 29.8202C39.325 30.7881 38.2777 31.4545 37.0876 31.4545H25.2661L23.838 34.041L23.7904 34.2314C23.7904 34.3366 23.8322 34.4375 23.9066 34.5119C23.981 34.5863 24.0819 34.6281 24.1871 34.6281H42.562V37.8017H23.5207C22.679 37.8017 21.8718 37.4673 21.2766 36.8721C20.6815 36.277 20.3471 35.4698 20.3471 34.6281C20.3471 34.0727 20.4899 33.5491 20.7279 33.1048L22.886 29.2172L17.1736 17.1736H14V14ZM23.5207 39.3884C24.3623 39.3884 25.1695 39.7228 25.7647 40.3179C26.3599 40.9131 26.6942 41.7203 26.6942 42.562C26.6942 43.4037 26.3599 44.2109 25.7647 44.806C25.1695 45.4012 24.3623 45.7355 23.5207 45.7355C22.679 45.7355 21.8718 45.4012 21.2766 44.806C20.6815 44.2109 20.3471 43.4037 20.3471 42.562C20.3471 40.8007 21.7593 39.3884 23.5207 39.3884ZM37.8017 28.281L42.2129 20.3471H22.156L25.9008 28.281H37.8017Z" fill="#FFFBF9"/>
</svg>
