<svg width="30" height="30" viewBox="0 0 30 30" fill="none" xmlns="http://www.w3.org/2000/svg">
<path d="M26.6667 0C27.5507 0 28.3986 0.346109 29.0237 0.962188C29.6488 1.57827 30 2.41385 30 3.28512V26.2809C30 27.1522 29.6488 27.9878 29.0237 28.6039C28.3986 29.2199 27.5507 29.566 26.6667 29.566H3.33333C2.44928 29.566 1.60143 29.2199 0.976311 28.6039C0.351189 27.9878 0 27.1522 0 26.2809V3.28512C0 2.41385 0.351189 1.57827 0.976311 0.962188C1.60143 0.346109 2.44928 0 3.33333 0H26.6667ZM25.8333 25.4597V16.7541C25.8333 15.3339 25.2609 13.9719 24.2419 12.9677C23.223 11.9635 21.841 11.3994 20.4 11.3994C18.9833 11.3994 17.3333 12.2535 16.5333 13.5347V11.7114H11.8833V25.4597H16.5333V17.3618C16.5333 16.0971 17.5667 15.0623 18.85 15.0623C19.4688 15.0623 20.0623 15.3045 20.4999 15.7358C20.9375 16.167 21.1833 16.752 21.1833 17.3618V25.4597H25.8333ZM6.46667 9.13262C7.20927 9.13262 7.92146 8.84189 8.44657 8.32439C8.97167 7.80688 9.26667 7.10499 9.26667 6.37313C9.26667 4.84555 8.01667 3.5972 6.46667 3.5972C5.71964 3.5972 5.00321 3.88967 4.47498 4.41025C3.94675 4.93084 3.65 5.63691 3.65 6.37313C3.65 7.90071 4.91667 9.13262 6.46667 9.13262ZM8.78333 25.4597V11.7114H4.16667V25.4597H8.78333Z" fill="#E4C9B9"/>
</svg>
